# xmcd
#
# Track frame offsets: 
#        150
#        19362
#        36340
#        61652
#        87512
#        106302
#        139967
#        170455
#
# Disc length: 2656 seconds
#
# Revision: 1
# Processed by: cddbd v1.5.2PL0 Copyright (c) Steve Scherf et al.
# Submitted via: ExactAudioCopy v0.99pb5
#
DISCID=6a0a5e08
DTITLE=Rhythms of Mali - Drums of Mali
DYEAR=1995
DGENRE=Rhythmic Soul
TTITLE0=Ambesato
TTITLE1=Soukouni Naka Donk
TTITLE2=Mbe Mousso Mimfe
TTITLE3=Ngigui
TTITLE4=Dunya Ngigui Mounde Kera
TTITLE5=Boloko Dounou
TTITLE6=Mandinka Dounou
TTITLE7=Siramori
EXTD=
EXTT0=
EXTT1=
EXTT2=
EXTT3=
EXTT4=
EXTT5=
EXTT6=
EXTT7=
PLAYORDER=
